<svg xmlns="http://www.w3.org/2000/svg" xmlns:xlink="http://www.w3.org/1999/xlink" width="128" zoomAndPan="magnify" viewBox="0 0 96 57.749997" height="77" preserveAspectRatio="xMidYMid meet" version="1.0"><defs><clipPath id="e506e39963"><path d="M 1 35 L 95.792969 35 L 95.792969 57.5 L 1 57.5 Z M 1 35 " clip-rule="nonzero"/></clipPath></defs><path fill="#252f3e" d="M 28.300781 20.878906 C 28.300781 22.0625 28.429688 23.023438 28.65625 23.726562 C 28.914062 24.429688 29.234375 25.195312 29.683594 26.027344 C 29.84375 26.285156 29.90625 26.539062 29.90625 26.765625 C 29.90625 27.085938 29.714844 27.402344 29.296875 27.722656 L 27.273438 29.066406 C 26.988281 29.257812 26.699219 29.355469 26.441406 29.355469 C 26.121094 29.355469 25.796875 29.195312 25.476562 28.90625 C 25.027344 28.425781 24.644531 27.914062 24.320312 27.402344 C 24 26.859375 23.679688 26.253906 23.328125 25.515625 C 20.824219 28.460938 17.675781 29.929688 13.890625 29.929688 C 11.191406 29.929688 9.042969 29.164062 7.46875 27.628906 C 5.894531 26.09375 5.09375 24.046875 5.09375 21.488281 C 5.09375 18.769531 6.058594 16.5625 8.015625 14.898438 C 9.972656 13.234375 12.574219 12.402344 15.878906 12.402344 C 16.972656 12.402344 18.09375 12.5 19.28125 12.660156 C 20.46875 12.820312 21.691406 13.074219 22.972656 13.363281 L 22.972656 11.027344 C 22.972656 8.597656 22.460938 6.902344 21.464844 5.910156 C 20.4375 4.917969 18.703125 4.441406 16.234375 4.441406 C 15.109375 4.441406 13.953125 4.566406 12.765625 4.855469 C 11.578125 5.144531 10.421875 5.496094 9.296875 5.941406 C 8.785156 6.167969 8.398438 6.296875 8.175781 6.359375 C 7.949219 6.421875 7.789062 6.453125 7.660156 6.453125 C 7.210938 6.453125 6.988281 6.136719 6.988281 5.464844 L 6.988281 3.894531 C 6.988281 3.382812 7.050781 3 7.210938 2.777344 C 7.371094 2.554688 7.660156 2.328125 8.109375 2.105469 C 9.234375 1.53125 10.582031 1.050781 12.15625 0.664062 C 13.730469 0.25 15.398438 0.0585938 17.164062 0.0585938 C 20.984375 0.0585938 23.777344 0.921875 25.574219 2.648438 C 27.339844 4.375 28.238281 7 28.238281 10.515625 L 28.238281 20.878906 Z M 15.269531 25.742188 C 16.328125 25.742188 17.421875 25.550781 18.574219 25.164062 C 19.730469 24.78125 20.757812 24.078125 21.625 23.117188 C 22.140625 22.511719 22.523438 21.839844 22.71875 21.070312 C 22.910156 20.304688 23.039062 19.375 23.039062 18.289062 L 23.039062 16.945312 C 22.105469 16.722656 21.113281 16.53125 20.085938 16.402344 C 19.058594 16.273438 18.0625 16.210938 17.066406 16.210938 C 14.917969 16.210938 13.34375 16.625 12.285156 17.488281 C 11.226562 18.351562 10.710938 19.566406 10.710938 21.167969 C 10.710938 22.671875 11.097656 23.789062 11.898438 24.558594 C 12.667969 25.355469 13.792969 25.742188 15.269531 25.742188 Z M 41.046875 29.195312 C 40.46875 29.195312 40.082031 29.097656 39.824219 28.875 C 39.570312 28.683594 39.34375 28.234375 39.152344 27.628906 L 31.609375 2.90625 C 31.417969 2.265625 31.320312 1.847656 31.320312 1.625 C 31.320312 1.113281 31.578125 0.824219 32.089844 0.824219 L 35.238281 0.824219 C 35.847656 0.824219 36.265625 0.921875 36.488281 1.144531 C 36.746094 1.335938 36.9375 1.785156 37.128906 2.394531 L 42.523438 23.566406 L 47.53125 2.394531 C 47.691406 1.753906 47.882812 1.335938 48.140625 1.144531 C 48.398438 0.953125 48.847656 0.824219 49.425781 0.824219 L 51.992188 0.824219 C 52.601562 0.824219 53.019531 0.921875 53.277344 1.144531 C 53.535156 1.335938 53.757812 1.785156 53.886719 2.394531 L 58.960938 23.820312 L 64.511719 2.394531 C 64.707031 1.753906 64.929688 1.335938 65.15625 1.144531 C 65.410156 0.953125 65.832031 0.824219 66.40625 0.824219 L 69.394531 0.824219 C 69.90625 0.824219 70.191406 1.082031 70.191406 1.625 C 70.191406 1.785156 70.164062 1.945312 70.132812 2.136719 C 70.097656 2.328125 70.035156 2.585938 69.90625 2.9375 L 62.167969 27.660156 C 61.976562 28.300781 61.75 28.714844 61.496094 28.90625 C 61.238281 29.101562 60.820312 29.226562 60.273438 29.226562 L 57.515625 29.226562 C 56.90625 29.226562 56.488281 29.132812 56.230469 28.90625 C 55.972656 28.683594 55.75 28.269531 55.621094 27.628906 L 50.644531 7 L 45.703125 27.597656 C 45.539062 28.234375 45.347656 28.652344 45.09375 28.875 C 44.835938 29.101562 44.386719 29.195312 43.808594 29.195312 Z M 82.296875 30.058594 C 80.625 30.058594 78.960938 29.867188 77.355469 29.484375 C 75.75 29.097656 74.496094 28.683594 73.660156 28.203125 C 73.148438 27.914062 72.792969 27.597656 72.664062 27.308594 C 72.535156 27.019531 72.472656 26.699219 72.472656 26.414062 L 72.472656 24.78125 C 72.472656 24.109375 72.730469 23.789062 73.210938 23.789062 C 73.402344 23.789062 73.597656 23.820312 73.789062 23.886719 C 73.984375 23.949219 74.269531 24.078125 74.59375 24.207031 C 75.683594 24.683594 76.871094 25.070312 78.121094 25.324219 C 79.40625 25.582031 80.660156 25.707031 81.945312 25.707031 C 83.964844 25.707031 85.539062 25.355469 86.632812 24.652344 C 87.722656 23.949219 88.296875 22.925781 88.296875 21.613281 C 88.296875 20.71875 88.011719 19.984375 87.433594 19.375 C 86.855469 18.769531 85.765625 18.226562 84.1875 17.714844 L 79.535156 16.273438 C 77.191406 15.539062 75.460938 14.449219 74.398438 13.011719 C 73.339844 11.605469 72.792969 10.035156 72.792969 8.375 C 72.792969 7.03125 73.082031 5.847656 73.660156 4.824219 C 74.242188 3.800781 75.011719 2.90625 75.972656 2.199219 C 76.9375 1.464844 78.027344 0.921875 79.3125 0.539062 C 80.59375 0.152344 81.945312 -0.00390625 83.355469 -0.00390625 C 84.0625 -0.00390625 84.800781 0.0273438 85.507812 0.121094 C 86.246094 0.21875 86.917969 0.347656 87.59375 0.472656 C 88.234375 0.632812 88.84375 0.792969 89.421875 0.984375 C 90.003906 1.175781 90.449219 1.371094 90.769531 1.5625 C 91.222656 1.816406 91.542969 2.074219 91.734375 2.359375 C 91.925781 2.617188 92.023438 2.96875 92.023438 3.417969 L 92.023438 4.917969 C 92.023438 5.589844 91.765625 5.941406 91.285156 5.941406 C 91.027344 5.941406 90.613281 5.816406 90.066406 5.558594 C 88.234375 4.726562 86.179688 4.3125 83.902344 4.3125 C 82.074219 4.3125 80.625 4.601562 79.632812 5.207031 C 78.636719 5.816406 78.121094 6.742188 78.121094 8.054688 C 78.121094 8.949219 78.445312 9.71875 79.089844 10.324219 C 79.726562 10.933594 80.917969 11.539062 82.617188 12.082031 L 87.175781 13.523438 C 89.488281 14.257812 91.15625 15.28125 92.152344 16.59375 C 93.144531 17.90625 93.628906 19.40625 93.628906 21.070312 C 93.628906 22.445312 93.339844 23.695312 92.792969 24.78125 C 92.21875 25.867188 91.445312 26.828125 90.449219 27.597656 C 89.457031 28.394531 88.269531 28.972656 86.886719 29.386719 C 85.441406 29.835938 83.9375 30.058594 82.296875 30.058594 Z M 82.296875 30.058594 " fill-opacity="1" fill-rule="nonzero"/><g clip-path="url(#e506e39963)"><path fill="#252f3e" d="M 88.363281 45.601562 C 77.800781 53.375 62.460938 57.5 49.265625 57.5 C 30.773438 57.5 14.113281 50.6875 1.53125 39.363281 C 0.535156 38.46875 1.433594 37.253906 2.621094 37.957031 C 16.234375 45.828125 33.023438 50.59375 50.386719 50.59375 C 62.101562 50.59375 74.980469 48.164062 86.820312 43.171875 C 88.589844 42.371094 90.097656 44.320312 88.363281 45.601562 Z M 92.761719 40.613281 C 91.414062 38.886719 83.835938 39.78125 80.402344 40.199219 C 79.375 40.328125 79.214844 39.429688 80.144531 38.757812 C 86.179688 34.535156 96.097656 35.75 97.253906 37.160156 C 98.414062 38.597656 96.9375 48.480469 91.285156 53.214844 C 90.417969 53.949219 89.582031 53.566406 89.96875 52.609375 C 91.253906 49.441406 94.109375 42.308594 92.761719 40.613281 Z M 92.761719 40.613281 " fill-opacity="1" fill-rule="nonzero"/></g></svg>