<svg xmlns="http://www.w3.org/2000/svg" xmlns:xlink="http://www.w3.org/1999/xlink" width="128" zoomAndPan="magnify" viewBox="0 0 96 57.749997" height="77" preserveAspectRatio="xMidYMid meet" version="1.0"><defs><filter x="0%" y="0%" width="100%" height="100%" id="be2bd9d4a2"><feColorMatrix values="0 0 0 0 1 0 0 0 0 1 0 0 0 0 1 0 0 0 1 0" color-interpolation-filters="sRGB"/></filter><g/><mask id="d8d1292a50"><g filter="url(#be2bd9d4a2)"><rect x="-9.6" width="115.2" fill="#000000" y="-5.775" height="69.299996" fill-opacity="0.4471"/></g></mask><clipPath id="4c6c4c3e1f"><path d="M 0.765625 1 L 18.210938 1 L 18.210938 11.507812 L 0.765625 11.507812 Z M 0.765625 1 " clip-rule="nonzero"/></clipPath><clipPath id="397a2152e0"><rect x="0" width="19" y="0" height="12"/></clipPath><mask id="b0968072e6"><g filter="url(#be2bd9d4a2)"><rect x="-9.6" width="115.2" fill="#000000" y="-5.775" height="69.299996" fill-opacity="0.6"/></g></mask><clipPath id="98c1e8adb9"><path d="M 0.5 1 L 18 1 L 18 11.507812 L 0.5 11.507812 Z M 0.5 1 " clip-rule="nonzero"/></clipPath><clipPath id="8ab4255134"><rect x="0" width="19" y="0" height="12"/></clipPath><mask id="e45627c037"><g filter="url(#be2bd9d4a2)"><rect x="-9.6" width="115.2" fill="#000000" y="-5.775" height="69.299996" fill-opacity="0.8"/></g></mask><clipPath id="84ecf1b236"><path d="M 0.765625 1 L 12.476562 1 L 12.476562 21.78125 L 0.765625 21.78125 Z M 0.765625 1 " clip-rule="nonzero"/></clipPath><clipPath id="6046fa6fc3"><rect x="0" width="13" y="0" height="22"/></clipPath><mask id="ce4dd028ac"><g filter="url(#be2bd9d4a2)"><rect x="-9.6" width="115.2" fill="#000000" y="-5.775" height="69.299996" fill-opacity="0.4471"/></g></mask><clipPath id="8544124625"><path d="M 0.5 0.800781 L 18 0.800781 L 18 11.316406 L 0.5 11.316406 Z M 0.5 0.800781 " clip-rule="nonzero"/></clipPath><clipPath id="a04e49147b"><rect x="0" width="19" y="0" height="12"/></clipPath><mask id="0cd64cdef6"><g filter="url(#be2bd9d4a2)"><rect x="-9.6" width="115.2" fill="#000000" y="-5.775" height="69.299996" fill-opacity="0.6"/></g></mask><clipPath id="915bffe758"><path d="M 0.765625 0.800781 L 18.449219 0.800781 L 18.449219 11.316406 L 0.765625 11.316406 Z M 0.765625 0.800781 " clip-rule="nonzero"/></clipPath><clipPath id="58f12c7bfe"><rect x="0" width="19" y="0" height="12"/></clipPath><mask id="62fe3da06c"><g filter="url(#be2bd9d4a2)"><rect x="-9.6" width="115.2" fill="#000000" y="-5.775" height="69.299996" fill-opacity="0.8"/></g></mask><clipPath id="1da378ac50"><path d="M 0.234375 0.523438 L 12 0.523438 L 12 21.316406 L 0.234375 21.316406 Z M 0.234375 0.523438 " clip-rule="nonzero"/></clipPath><clipPath id="a2e48b0abc"><rect x="0" width="13" y="0" height="22"/></clipPath></defs><g mask="url(#d8d1292a50)"><g transform="matrix(1, 0, 0, 1, 9, 10)"><g clip-path="url(#397a2152e0)"><g clip-path="url(#4c6c4c3e1f)"><path fill="#ffffff" d="M 18.148438 1.203125 L 12.367188 11.480469 L 0.8125 11.480469 L 6.589844 1.203125 L 18.148438 1.203125 " fill-opacity="1" fill-rule="nonzero"/></g></g></g></g><g mask="url(#b0968072e6)"><g transform="matrix(1, 0, 0, 1, 15, 10)"><g clip-path="url(#8ab4255134)"><g clip-path="url(#98c1e8adb9)"><path fill="#ffffff" d="M 6.367188 11.480469 L 17.921875 11.480469 L 12.148438 1.203125 L 0.589844 1.203125 Z M 6.367188 11.480469 " fill-opacity="1" fill-rule="nonzero"/></g></g></g></g><g mask="url(#e45627c037)"><g transform="matrix(1, 0, 0, 1, 9, 10)"><g clip-path="url(#6046fa6fc3)"><g clip-path="url(#84ecf1b236)"><path fill="#ffffff" d="M 6.589844 21.75 L 12.367188 11.480469 L 6.589844 1.203125 L 0.8125 11.480469 Z M 6.589844 21.75 " fill-opacity="1" fill-rule="nonzero"/></g></g></g></g><g mask="url(#ce4dd028ac)"><g transform="matrix(1, 0, 0, 1, 15, 36)"><g clip-path="url(#a04e49147b)"><g clip-path="url(#8544124625)"><path fill="#ffffff" d="M 0.644531 11.164062 L 6.425781 0.886719 L 17.984375 0.886719 L 12.203125 11.164062 L 0.644531 11.164062 " fill-opacity="1" fill-rule="nonzero"/></g></g></g></g><g mask="url(#0cd64cdef6)"><g transform="matrix(1, 0, 0, 1, 9, 36)"><g clip-path="url(#58f12c7bfe)"><g clip-path="url(#915bffe758)"><path fill="#ffffff" d="M 12.425781 0.886719 L 0.867188 0.886719 L 6.644531 11.164062 L 18.203125 11.164062 Z M 12.425781 0.886719 " fill-opacity="1" fill-rule="nonzero"/></g></g></g></g><g mask="url(#62fe3da06c)"><g transform="matrix(1, 0, 0, 1, 21, 26)"><g clip-path="url(#a2e48b0abc)"><g clip-path="url(#1da378ac50)"><path fill="#ffffff" d="M 6.203125 0.617188 L 0.425781 10.886719 L 6.203125 21.164062 L 11.984375 10.886719 Z M 6.203125 0.617188 " fill-opacity="1" fill-rule="nonzero"/></g></g></g></g><g fill="#252f3e" fill-opacity="1"><g transform="translate(43.432271, 33.231138)"><g><path d="M 6.5 -2.59375 C 6.5 -2.0625 6.363281 -1.585938 6.09375 -1.171875 C 5.832031 -0.765625 5.445312 -0.445312 4.9375 -0.21875 C 4.425781 0 3.832031 0.109375 3.15625 0.109375 C 2.59375 0.109375 2.117188 0.0703125 1.734375 0 C 1.347656 -0.0820312 0.945312 -0.222656 0.53125 -0.421875 L 0.53125 -2.46875 C 0.96875 -2.25 1.421875 -2.070312 1.890625 -1.9375 C 2.367188 -1.8125 2.804688 -1.75 3.203125 -1.75 C 3.546875 -1.75 3.796875 -1.804688 3.953125 -1.921875 C 4.117188 -2.046875 4.203125 -2.203125 4.203125 -2.390625 C 4.203125 -2.503906 4.164062 -2.601562 4.09375 -2.6875 C 4.03125 -2.78125 3.925781 -2.867188 3.78125 -2.953125 C 3.644531 -3.046875 3.269531 -3.234375 2.65625 -3.515625 C 2.101562 -3.765625 1.6875 -4.007812 1.40625 -4.25 C 1.125 -4.488281 0.914062 -4.757812 0.78125 -5.0625 C 0.644531 -5.375 0.578125 -5.738281 0.578125 -6.15625 C 0.578125 -6.945312 0.863281 -7.5625 1.4375 -8 C 2.007812 -8.4375 2.796875 -8.65625 3.796875 -8.65625 C 4.679688 -8.65625 5.582031 -8.453125 6.5 -8.046875 L 5.796875 -6.265625 C 4.992188 -6.628906 4.304688 -6.8125 3.734375 -6.8125 C 3.429688 -6.8125 3.210938 -6.757812 3.078125 -6.65625 C 2.941406 -6.550781 2.875 -6.421875 2.875 -6.265625 C 2.875 -6.097656 2.957031 -5.945312 3.125 -5.8125 C 3.300781 -5.675781 3.773438 -5.4375 4.546875 -5.09375 C 5.273438 -4.757812 5.78125 -4.398438 6.0625 -4.015625 C 6.351562 -3.640625 6.5 -3.164062 6.5 -2.59375 Z M 6.5 -2.59375 "/></g></g><g transform="translate(50.328199, 33.231138)"><g><path d="M 7.109375 -3.328125 C 7.109375 -2.242188 6.816406 -1.398438 6.234375 -0.796875 C 5.648438 -0.191406 4.832031 0.109375 3.78125 0.109375 C 2.78125 0.109375 1.984375 -0.195312 1.390625 -0.8125 C 0.796875 -1.425781 0.5 -2.265625 0.5 -3.328125 C 0.5 -4.398438 0.789062 -5.234375 1.375 -5.828125 C 1.957031 -6.429688 2.773438 -6.734375 3.828125 -6.734375 C 4.472656 -6.734375 5.046875 -6.59375 5.546875 -6.3125 C 6.046875 -6.039062 6.429688 -5.644531 6.703125 -5.125 C 6.972656 -4.613281 7.109375 -4.015625 7.109375 -3.328125 Z M 2.8125 -3.328125 C 2.8125 -2.753906 2.890625 -2.316406 3.046875 -2.015625 C 3.203125 -1.722656 3.457031 -1.578125 3.8125 -1.578125 C 4.164062 -1.578125 4.414062 -1.722656 4.5625 -2.015625 C 4.707031 -2.316406 4.78125 -2.753906 4.78125 -3.328125 C 4.78125 -3.890625 4.707031 -4.3125 4.5625 -4.59375 C 4.414062 -4.882812 4.160156 -5.03125 3.796875 -5.03125 C 3.453125 -5.03125 3.203125 -4.882812 3.046875 -4.59375 C 2.890625 -4.3125 2.8125 -3.890625 2.8125 -3.328125 Z M 2.8125 -3.328125 "/></g></g><g transform="translate(57.941723, 33.231138)"><g><path d="M 3.0625 0 L 0.78125 0 L 0.78125 -9.078125 L 3.0625 -9.078125 Z M 3.0625 0 "/></g></g><g transform="translate(61.80391, 33.231138)"><g><path d="M 3.078125 0 L 0.796875 0 L 0.796875 -6.609375 L 3.078125 -6.609375 Z M 0.734375 -8.265625 C 0.734375 -8.597656 0.828125 -8.847656 1.015625 -9.015625 C 1.210938 -9.191406 1.523438 -9.28125 1.953125 -9.28125 C 2.367188 -9.28125 2.675781 -9.191406 2.875 -9.015625 C 3.070312 -8.847656 3.171875 -8.597656 3.171875 -8.265625 C 3.171875 -7.585938 2.765625 -7.25 1.953125 -7.25 C 1.140625 -7.25 0.734375 -7.585938 0.734375 -8.265625 Z M 0.734375 -8.265625 "/></g></g><g transform="translate(65.689433, 33.231138)"><g><path d="M 2.84375 0.109375 C 2.375 0.109375 1.960938 -0.0195312 1.609375 -0.28125 C 1.253906 -0.550781 0.976562 -0.945312 0.78125 -1.46875 C 0.59375 -1.988281 0.5 -2.597656 0.5 -3.296875 C 0.5 -4.367188 0.710938 -5.207031 1.140625 -5.8125 C 1.578125 -6.425781 2.175781 -6.734375 2.9375 -6.734375 C 3.300781 -6.734375 3.617188 -6.65625 3.890625 -6.5 C 4.171875 -6.351562 4.425781 -6.109375 4.65625 -5.765625 L 4.703125 -5.765625 C 4.628906 -6.273438 4.59375 -6.789062 4.59375 -7.3125 L 4.59375 -9.078125 L 6.90625 -9.078125 L 6.90625 0 L 5.171875 0 L 4.6875 -0.828125 L 4.59375 -0.828125 C 4.207031 -0.203125 3.625 0.109375 2.84375 0.109375 Z M 3.78125 -1.6875 C 4.144531 -1.6875 4.398438 -1.800781 4.546875 -2.03125 C 4.703125 -2.257812 4.785156 -2.613281 4.796875 -3.09375 L 4.796875 -3.28125 C 4.796875 -3.863281 4.710938 -4.273438 4.546875 -4.515625 C 4.378906 -4.765625 4.113281 -4.890625 3.75 -4.890625 C 3.445312 -4.890625 3.210938 -4.75 3.046875 -4.46875 C 2.890625 -4.1875 2.8125 -3.785156 2.8125 -3.265625 C 2.8125 -2.742188 2.894531 -2.347656 3.0625 -2.078125 C 3.226562 -1.816406 3.46875 -1.6875 3.78125 -1.6875 Z M 3.78125 -1.6875 "/></g></g><g transform="translate(73.372967, 33.231138)"><g><path d="M 3.078125 0 L 0.796875 0 L 0.796875 -6.609375 L 3.078125 -6.609375 Z M 0.734375 -8.265625 C 0.734375 -8.597656 0.828125 -8.847656 1.015625 -9.015625 C 1.210938 -9.191406 1.523438 -9.28125 1.953125 -9.28125 C 2.367188 -9.28125 2.675781 -9.191406 2.875 -9.015625 C 3.070312 -8.847656 3.171875 -8.597656 3.171875 -8.265625 C 3.171875 -7.585938 2.765625 -7.25 1.953125 -7.25 C 1.140625 -7.25 0.734375 -7.585938 0.734375 -8.265625 Z M 0.734375 -8.265625 "/></g></g><g transform="translate(77.25849, 33.231138)"><g><path d="M 4.03125 -1.6875 C 4.332031 -1.6875 4.695312 -1.765625 5.125 -1.921875 L 5.125 -0.25 C 4.820312 -0.113281 4.53125 -0.0195312 4.25 0.03125 C 3.96875 0.0820312 3.644531 0.109375 3.28125 0.109375 C 2.507812 0.109375 1.953125 -0.078125 1.609375 -0.453125 C 1.273438 -0.828125 1.109375 -1.398438 1.109375 -2.171875 L 1.109375 -4.90625 L 0.3125 -4.90625 L 0.3125 -5.828125 L 1.328125 -6.546875 L 1.921875 -7.9375 L 3.40625 -7.9375 L 3.40625 -6.609375 L 5.03125 -6.609375 L 5.03125 -4.90625 L 3.40625 -4.90625 L 3.40625 -2.328125 C 3.40625 -1.898438 3.613281 -1.6875 4.03125 -1.6875 Z M 4.03125 -1.6875 "/></g></g><g transform="translate(82.754229, 33.231138)"><g><path d="M -0.015625 -6.609375 L 2.390625 -6.609375 L 3.515625 -2.8125 C 3.566406 -2.613281 3.601562 -2.375 3.625 -2.09375 L 3.671875 -2.09375 C 3.703125 -2.363281 3.75 -2.601562 3.8125 -2.8125 L 4.96875 -6.609375 L 7.296875 -6.609375 L 4.671875 0.421875 C 4.335938 1.316406 3.925781 1.945312 3.4375 2.3125 C 2.945312 2.6875 2.3125 2.875 1.53125 2.875 C 1.226562 2.875 0.914062 2.835938 0.59375 2.765625 L 0.59375 0.984375 C 0.800781 1.023438 1.035156 1.046875 1.296875 1.046875 C 1.503906 1.046875 1.679688 1.003906 1.828125 0.921875 C 1.984375 0.847656 2.117188 0.738281 2.234375 0.59375 C 2.347656 0.457031 2.46875 0.226562 2.59375 -0.09375 Z M -0.015625 -6.609375 "/></g></g></g></svg>