<svg xmlns="http://www.w3.org/2000/svg" xmlns:xlink="http://www.w3.org/1999/xlink" width="128" zoomAndPan="magnify" viewBox="0 0 96 57.749997" height="77" preserveAspectRatio="xMidYMid meet" version="1.0"><defs><clipPath id="365cf5978b"><path d="M 0.207031 16.171875 L 95.792969 16.171875 L 95.792969 43 L 0.207031 43 Z M 0.207031 16.171875 " clip-rule="nonzero"/></clipPath></defs><g clip-path="url(#365cf5978b)"><path fill="#252f3e" d="M 0.207031 22.695312 L 5.894531 22.695312 L 9.199219 31.195312 L 12.550781 22.695312 L 18.09375 22.695312 L 9.753906 42.847656 L 4.183594 42.847656 L 6.476562 37.519531 Z M 23.855469 22.355469 C 19.589844 22.355469 16.890625 26.207031 16.890625 30.035156 C 16.890625 34.347656 19.855469 37.761719 23.785156 37.761719 C 26.726562 37.761719 27.835938 35.96875 27.835938 35.96875 L 27.835938 37.375 L 32.800781 37.375 L 32.800781 22.695312 L 27.835938 22.695312 L 27.835938 24.027344 C 27.808594 24.027344 26.582031 22.355469 23.855469 22.355469 Z M 24.917969 27.078125 C 26.894531 27.078125 27.90625 28.652344 27.90625 30.058594 C 27.90625 31.585938 26.820312 33.085938 24.917969 33.085938 C 23.351562 33.085938 21.929688 31.800781 21.929688 30.132812 C 21.929688 28.433594 23.0625 27.078125 24.917969 27.078125 Z M 34.488281 37.375 L 34.488281 16.203125 L 39.671875 16.203125 L 39.671875 24.074219 C 39.671875 24.074219 40.898438 22.355469 43.480469 22.355469 C 46.636719 22.355469 48.496094 24.730469 48.496094 28.097656 L 48.496094 37.375 L 43.335938 37.375 L 43.335938 29.355469 C 43.335938 28.21875 42.804688 27.101562 41.574219 27.101562 C 40.320312 27.101562 39.671875 28.21875 39.671875 29.355469 L 39.671875 37.375 Z M 57.339844 22.355469 C 52.449219 22.355469 49.53125 26.085938 49.53125 30.105469 C 49.53125 34.660156 53.050781 37.785156 57.367188 37.785156 C 61.535156 37.785156 65.175781 34.804688 65.175781 30.179688 C 65.175781 25.117188 61.34375 22.355469 57.339844 22.355469 Z M 57.390625 27.101562 C 59.125 27.101562 60.308594 28.554688 60.308594 30.082031 C 60.308594 31.390625 59.199219 33.011719 57.390625 33.011719 C 55.726562 33.011719 54.496094 31.679688 54.496094 30.058594 C 54.496094 28.53125 55.507812 27.101562 57.390625 27.101562 Z M 73.808594 22.355469 C 68.914062 22.355469 65.996094 26.085938 65.996094 30.105469 C 65.996094 34.660156 69.515625 37.785156 73.832031 37.785156 C 78 37.785156 81.640625 34.804688 81.640625 30.179688 C 81.640625 25.117188 77.832031 22.355469 73.808594 22.355469 Z M 73.855469 27.101562 C 75.589844 27.101562 76.773438 28.554688 76.773438 30.082031 C 76.773438 31.390625 75.664062 33.011719 73.855469 33.011719 C 72.191406 33.011719 70.960938 31.679688 70.960938 30.058594 C 70.960938 28.53125 72 27.101562 73.855469 27.101562 Z M 85.742188 30.761719 C 87.644531 30.761719 89.1875 32.3125 89.1875 34.226562 C 89.1875 36.136719 87.644531 37.6875 85.742188 37.6875 C 83.835938 37.6875 82.292969 36.136719 82.292969 34.226562 C 82.292969 32.3125 83.835938 30.761719 85.742188 30.761719 Z M 90.320312 29.5 L 84.125 29.5 L 89.621094 16.203125 L 95.792969 16.203125 Z M 90.320312 29.5 " fill-opacity="1" fill-rule="nonzero"/></g></svg>