<svg xmlns="http://www.w3.org/2000/svg" xmlns:xlink="http://www.w3.org/1999/xlink" width="1712" zoomAndPan="magnify" viewBox="0 0 1284 767.999994" height="1024" preserveAspectRatio="xMidYMid meet" version="1.0"><defs><filter x="0%" y="0%" width="100%" height="100%" id="c67cea954f"><feColorMatrix values="0 0 0 0 1 0 0 0 0 1 0 0 0 0 1 0 0 0 1 0" color-interpolation-filters="sRGB"/></filter><g/><mask id="78b4e1a0d5"><g filter="url(#c67cea954f)"><rect x="-128.4" width="1540.8" fill="#000000" y="-76.799999" height="921.599993" fill-opacity="0.4471"/></g></mask><clipPath id="ddd216034b"><path d="M 1 0 L 143.359375 0 L 143.359375 84.71875 L 1 84.71875 Z M 1 0 " clip-rule="nonzero"/></clipPath><clipPath id="3837b31dc0"><rect x="0" width="144" y="0" height="85"/></clipPath><mask id="e7cfb3bd48"><g filter="url(#c67cea954f)"><rect x="-128.4" width="1540.8" fill="#000000" y="-76.799999" height="921.599993" fill-opacity="0.6"/></g></mask><clipPath id="3571daaa1d"><path d="M 0.078125 0 L 142.878906 0 L 142.878906 84.71875 L 0.078125 84.71875 Z M 0.078125 0 " clip-rule="nonzero"/></clipPath><clipPath id="0665e77c88"><rect x="0" width="143" y="0" height="85"/></clipPath><mask id="ab25b3082e"><g filter="url(#c67cea954f)"><rect x="-128.4" width="1540.8" fill="#000000" y="-76.799999" height="921.599993" fill-opacity="0.8"/></g></mask><clipPath id="36d1e90ffe"><path d="M 1 0 L 96 0 L 96 168.71875 L 1 168.71875 Z M 1 0 " clip-rule="nonzero"/></clipPath><clipPath id="e0be6f2803"><rect x="0" width="97" y="0" height="169"/></clipPath><mask id="28f4eac933"><g filter="url(#c67cea954f)"><rect x="-128.4" width="1540.8" fill="#000000" y="-76.799999" height="921.599993" fill-opacity="0.4471"/></g></mask><clipPath id="91211456f2"><path d="M 0.558594 0.238281 L 143 0.238281 L 143 85 L 0.558594 85 Z M 0.558594 0.238281 " clip-rule="nonzero"/></clipPath><clipPath id="c77fe0416a"><rect x="0" width="144" y="0" height="86"/></clipPath><mask id="f5ca2e31f7"><g filter="url(#c67cea954f)"><rect x="-128.4" width="1540.8" fill="#000000" y="-76.799999" height="921.599993" fill-opacity="0.6"/></g></mask><clipPath id="f5e4d96687"><path d="M 0.519531 0.238281 L 143 0.238281 L 143 85 L 0.519531 85 Z M 0.519531 0.238281 " clip-rule="nonzero"/></clipPath><clipPath id="71a1e56e70"><rect x="0" width="144" y="0" height="86"/></clipPath><mask id="dcd10bf58d"><g filter="url(#c67cea954f)"><rect x="-128.4" width="1540.8" fill="#000000" y="-76.799999" height="921.599993" fill-opacity="0.8"/></g></mask><clipPath id="317015eac2"><path d="M 0.078125 0 L 95 0 L 95 169 L 0.078125 169 Z M 0.078125 0 " clip-rule="nonzero"/></clipPath><clipPath id="6564605c4e"><rect x="0" width="96" y="0" height="170"/></clipPath></defs><g mask="url(#78b4e1a0d5)"><g transform="matrix(1, 0, 0, 1, 214, 240)"><g clip-path="url(#3837b31dc0)"><g clip-path="url(#ddd216034b)"><path fill="#ffffff" d="M 143.144531 0.257812 L 95.789062 84.421875 L 1.144531 84.421875 L 48.464844 0.257812 L 143.144531 0.257812 " fill-opacity="1" fill-rule="nonzero"/></g></g></g></g><g mask="url(#e7cfb3bd48)"><g transform="matrix(1, 0, 0, 1, 262, 240)"><g clip-path="url(#0665e77c88)"><g clip-path="url(#3571daaa1d)"><path fill="#ffffff" d="M 47.789062 84.421875 L 142.464844 84.421875 L 95.144531 0.257812 L 0.464844 0.257812 Z M 47.789062 84.421875 " fill-opacity="1" fill-rule="nonzero"/></g></g></g></g><g mask="url(#ab25b3082e)"><g transform="matrix(1, 0, 0, 1, 214, 240)"><g clip-path="url(#e0be6f2803)"><g clip-path="url(#36d1e90ffe)"><path fill="#ffffff" d="M 48.464844 168.554688 L 95.789062 84.421875 L 48.464844 0.257812 L 1.144531 84.421875 Z M 48.464844 168.554688 " fill-opacity="1" fill-rule="nonzero"/></g></g></g></g><g mask="url(#28f4eac933)"><g transform="matrix(1, 0, 0, 1, 262, 450)"><g clip-path="url(#c77fe0416a)"><g clip-path="url(#91211456f2)"><path fill="#ffffff" d="M 0.925781 84.800781 L 48.28125 0.636719 L 142.957031 0.636719 L 95.601562 84.800781 L 0.925781 84.800781 " fill-opacity="1" fill-rule="nonzero"/></g></g></g></g><g mask="url(#f5ca2e31f7)"><g transform="matrix(1, 0, 0, 1, 215, 450)"><g clip-path="url(#71a1e56e70)"><g clip-path="url(#f5e4d96687)"><path fill="#ffffff" d="M 95.28125 0.636719 L 0.601562 0.636719 L 47.925781 84.800781 L 142.601562 84.800781 Z M 95.28125 0.636719 " fill-opacity="1" fill-rule="nonzero"/></g></g></g></g><g mask="url(#dcd10bf58d)"><g transform="matrix(1, 0, 0, 1, 310, 366)"><g clip-path="url(#6564605c4e)"><g clip-path="url(#317015eac2)"><path fill="#ffffff" d="M 47.601562 0.503906 L 0.28125 84.636719 L 47.601562 168.800781 L 94.957031 84.636719 Z M 47.601562 0.503906 " fill-opacity="1" fill-rule="nonzero"/></g></g></g></g><g fill="#ffffff" fill-opacity="1"><g transform="translate(547.837898, 439.500056)"><g><path d="M 78.328125 -31.21875 C 78.328125 -24.84375 76.707031 -19.179688 73.46875 -14.234375 C 70.238281 -9.296875 65.578125 -5.453125 59.484375 -2.703125 C 53.390625 0.0351562 46.242188 1.40625 38.046875 1.40625 C 31.203125 1.40625 25.457031 0.925781 20.8125 -0.03125 C 16.175781 -1 11.347656 -2.675781 6.328125 -5.0625 L 6.328125 -29.8125 C 11.628906 -27.09375 17.140625 -24.972656 22.859375 -23.453125 C 28.578125 -21.929688 33.828125 -21.171875 38.609375 -21.171875 C 42.734375 -21.171875 45.753906 -21.882812 47.671875 -23.3125 C 49.597656 -24.738281 50.5625 -26.578125 50.5625 -28.828125 C 50.5625 -30.234375 50.171875 -31.460938 49.390625 -32.515625 C 48.617188 -33.578125 47.378906 -34.644531 45.671875 -35.71875 C 43.960938 -36.800781 39.40625 -39.003906 32 -42.328125 C 25.289062 -45.378906 20.257812 -48.332031 16.90625 -51.1875 C 13.5625 -54.050781 11.078125 -57.332031 9.453125 -61.03125 C 7.835938 -64.738281 7.03125 -69.125 7.03125 -74.1875 C 7.03125 -83.65625 10.472656 -91.035156 17.359375 -96.328125 C 24.253906 -101.628906 33.726562 -104.28125 45.78125 -104.28125 C 56.414062 -104.28125 67.265625 -101.816406 78.328125 -96.890625 L 69.828125 -75.453125 C 60.210938 -79.859375 51.914062 -82.0625 44.9375 -82.0625 C 41.320312 -82.0625 38.691406 -81.425781 37.046875 -80.15625 C 35.410156 -78.894531 34.59375 -77.328125 34.59375 -75.453125 C 34.59375 -73.429688 35.632812 -71.625 37.71875 -70.03125 C 39.8125 -68.4375 45.472656 -65.53125 54.703125 -61.3125 C 63.566406 -57.332031 69.71875 -53.054688 73.15625 -48.484375 C 76.601562 -43.910156 78.328125 -38.15625 78.328125 -31.21875 Z M 78.328125 -31.21875 "/></g></g><g transform="translate(630.947269, 439.500056)"><g><path d="M 85.578125 -40.015625 C 85.578125 -26.984375 82.070312 -16.820312 75.0625 -9.53125 C 68.050781 -2.238281 58.242188 1.40625 45.640625 1.40625 C 33.546875 1.40625 23.921875 -2.316406 16.765625 -9.765625 C 9.617188 -17.222656 6.046875 -27.304688 6.046875 -40.015625 C 6.046875 -52.992188 9.550781 -63.082031 16.5625 -70.28125 C 23.570312 -77.476562 33.40625 -81.078125 46.0625 -81.078125 C 53.882812 -81.078125 60.796875 -79.410156 66.796875 -76.078125 C 72.796875 -72.753906 77.425781 -67.984375 80.6875 -61.765625 C 83.945312 -55.554688 85.578125 -48.304688 85.578125 -40.015625 Z M 33.96875 -40.015625 C 33.96875 -33.171875 34.878906 -27.953125 36.703125 -24.359375 C 38.535156 -20.773438 41.609375 -18.984375 45.921875 -18.984375 C 50.179688 -18.984375 53.191406 -20.773438 54.953125 -24.359375 C 56.710938 -27.953125 57.59375 -33.171875 57.59375 -40.015625 C 57.59375 -46.804688 56.703125 -51.9375 54.921875 -55.40625 C 53.140625 -58.875 50.09375 -60.609375 45.78125 -60.609375 C 41.5625 -60.609375 38.535156 -58.882812 36.703125 -55.4375 C 34.878906 -52 33.96875 -46.859375 33.96875 -40.015625 Z M 33.96875 -40.015625 "/></g></g><g transform="translate(722.705077, 439.500056)"><g><path d="M 36.984375 0 L 9.5 0 L 9.5 -109.40625 L 36.984375 -109.40625 Z M 36.984375 0 "/></g></g><g transform="translate(769.25195, 439.500056)"><g><path d="M 37.125 0 L 9.640625 0 L 9.640625 -79.671875 L 37.125 -79.671875 Z M 8.9375 -99.5 C 8.9375 -103.625 10.082031 -106.691406 12.375 -108.703125 C 14.675781 -110.722656 18.378906 -111.734375 23.484375 -111.734375 C 28.597656 -111.734375 32.328125 -110.703125 34.671875 -108.640625 C 37.015625 -106.578125 38.1875 -103.53125 38.1875 -99.5 C 38.1875 -91.4375 33.285156 -87.40625 23.484375 -87.40625 C 13.785156 -87.40625 8.9375 -91.4375 8.9375 -99.5 Z M 8.9375 -99.5 "/></g></g><g transform="translate(816.080072, 439.500056)"><g><path d="M 34.25 1.40625 C 28.570312 1.40625 23.613281 -0.207031 19.375 -3.4375 C 15.132812 -6.675781 11.851562 -11.4375 9.53125 -17.71875 C 7.207031 -24 6.046875 -31.335938 6.046875 -39.734375 C 6.046875 -52.671875 8.644531 -62.796875 13.84375 -70.109375 C 19.050781 -77.421875 26.203125 -81.078125 35.296875 -81.078125 C 39.753906 -81.078125 43.65625 -80.1875 47 -78.40625 C 50.351562 -76.625 53.414062 -73.625 56.1875 -69.40625 L 56.75 -69.40625 C 55.851562 -75.632812 55.40625 -81.867188 55.40625 -88.109375 L 55.40625 -109.40625 L 83.109375 -109.40625 L 83.109375 0 L 62.375 0 L 56.46875 -10.0625 L 55.40625 -10.0625 C 50.675781 -2.414062 43.625 1.40625 34.25 1.40625 Z M 45.5 -20.328125 C 49.90625 -20.328125 53.007812 -21.707031 54.8125 -24.46875 C 56.613281 -27.238281 57.585938 -31.503906 57.734375 -37.265625 L 57.734375 -39.453125 C 57.734375 -46.484375 56.722656 -51.484375 54.703125 -54.453125 C 52.691406 -57.429688 49.53125 -58.921875 45.21875 -58.921875 C 41.601562 -58.921875 38.800781 -57.222656 36.8125 -53.828125 C 34.820312 -50.429688 33.828125 -45.59375 33.828125 -39.3125 C 33.828125 -33.125 34.832031 -28.410156 36.84375 -25.171875 C 38.863281 -21.941406 41.75 -20.328125 45.5 -20.328125 Z M 45.5 -20.328125 "/></g></g><g transform="translate(908.681631, 439.500056)"><g><path d="M 37.125 0 L 9.640625 0 L 9.640625 -79.671875 L 37.125 -79.671875 Z M 8.9375 -99.5 C 8.9375 -103.625 10.082031 -106.691406 12.375 -108.703125 C 14.675781 -110.722656 18.378906 -111.734375 23.484375 -111.734375 C 28.597656 -111.734375 32.328125 -110.703125 34.671875 -108.640625 C 37.015625 -106.578125 38.1875 -103.53125 38.1875 -99.5 C 38.1875 -91.4375 33.285156 -87.40625 23.484375 -87.40625 C 13.785156 -87.40625 8.9375 -91.4375 8.9375 -99.5 Z M 8.9375 -99.5 "/></g></g><g transform="translate(955.509753, 439.500056)"><g><path d="M 48.515625 -20.328125 C 52.222656 -20.328125 56.65625 -21.238281 61.8125 -23.0625 L 61.8125 -3.03125 C 58.101562 -1.4375 54.570312 -0.300781 51.21875 0.375 C 47.875 1.0625 43.953125 1.40625 39.453125 1.40625 C 30.210938 1.40625 23.550781 -0.851562 19.46875 -5.375 C 15.394531 -9.90625 13.359375 -16.859375 13.359375 -26.234375 L 13.359375 -59.0625 L 3.734375 -59.0625 L 3.734375 -70.25 L 15.96875 -78.890625 L 23.0625 -95.625 L 41.0625 -95.625 L 41.0625 -79.671875 L 60.609375 -79.671875 L 60.609375 -59.0625 L 41.0625 -59.0625 L 41.0625 -28.0625 C 41.0625 -22.90625 43.546875 -20.328125 48.515625 -20.328125 Z M 48.515625 -20.328125 "/></g></g><g transform="translate(1021.744125, 439.500056)"><g><path d="M -0.140625 -79.671875 L 28.828125 -79.671875 L 42.328125 -33.96875 C 42.984375 -31.570312 43.429688 -28.6875 43.671875 -25.3125 L 44.234375 -25.3125 C 44.609375 -28.550781 45.171875 -31.390625 45.921875 -33.828125 L 59.765625 -79.671875 L 87.828125 -79.671875 L 56.328125 5.0625 C 52.296875 15.84375 47.335938 23.457031 41.453125 27.90625 C 35.566406 32.363281 27.890625 34.59375 18.421875 34.59375 C 14.765625 34.59375 11.015625 34.195312 7.171875 33.40625 L 7.171875 11.8125 C 9.660156 12.375 12.5 12.65625 15.6875 12.65625 C 18.125 12.65625 20.253906 12.1875 22.078125 11.25 C 23.910156 10.3125 25.503906 8.988281 26.859375 7.28125 C 28.222656 5.570312 29.675781 2.769531 31.21875 -1.125 Z M -0.140625 -79.671875 "/></g></g></g></svg>