<svg xmlns="http://www.w3.org/2000/svg" xmlns:xlink="http://www.w3.org/1999/xlink" width="1712" zoomAndPan="magnify" viewBox="0 0 1284 767.999994" height="1024" preserveAspectRatio="xMidYMid meet" version="1.0"><defs><clipPath id="7f4184fdc2"><path d="M 385.199219 312.097656 L 898.949219 312.097656 L 898.949219 455 L 385.199219 455 Z M 385.199219 312.097656 " clip-rule="nonzero"/></clipPath></defs><g clip-path="url(#7f4184fdc2)"><path fill="#000000" d="M 385.199219 347.035156 L 415.777344 347.035156 L 433.53125 392.566406 L 451.539062 347.035156 L 481.34375 347.035156 L 436.511719 454.957031 L 406.578125 454.957031 L 418.886719 426.421875 Z M 512.308594 345.21875 C 489.375 345.21875 474.863281 365.84375 474.863281 386.339844 C 474.863281 409.429688 490.800781 427.71875 511.921875 427.71875 C 527.726562 427.71875 533.6875 418.117188 533.6875 418.117188 L 533.6875 425.640625 L 560.378906 425.640625 L 560.378906 347.035156 L 533.6875 347.035156 L 533.6875 354.171875 C 533.558594 354.171875 526.949219 345.21875 512.308594 345.21875 Z M 518.011719 370.515625 C 528.636719 370.515625 534.078125 378.945312 534.078125 386.46875 C 534.078125 394.640625 528.246094 402.683594 518.011719 402.683594 C 509.589844 402.683594 501.945312 395.808594 501.945312 386.859375 C 501.945312 377.777344 508.035156 370.515625 518.011719 370.515625 Z M 569.449219 425.640625 L 569.449219 312.273438 L 597.308594 312.273438 L 597.308594 354.429688 C 597.308594 354.429688 603.917969 345.21875 617.78125 345.21875 C 634.753906 345.21875 644.730469 357.933594 644.730469 375.960938 L 644.730469 425.640625 L 617.003906 425.640625 L 617.003906 382.707031 C 617.003906 376.609375 614.152344 370.644531 607.542969 370.644531 C 600.804688 370.644531 597.308594 376.609375 597.308594 382.707031 L 597.308594 425.640625 Z M 692.285156 345.21875 C 665.980469 345.21875 650.300781 365.195312 650.300781 386.726562 C 650.300781 411.113281 669.21875 427.847656 692.414062 427.847656 C 714.828125 427.847656 734.394531 411.890625 734.394531 387.117188 C 734.394531 360.007812 713.792969 345.21875 692.285156 345.21875 Z M 692.542969 370.644531 C 701.871094 370.644531 708.222656 378.425781 708.222656 386.597656 C 708.222656 393.601562 702.261719 402.292969 692.542969 402.292969 C 683.601562 402.292969 676.996094 395.160156 676.996094 386.46875 C 676.996094 378.296875 682.4375 370.644531 692.542969 370.644531 Z M 780.78125 345.21875 C 754.476562 345.21875 738.800781 365.195312 738.800781 386.726562 C 738.800781 411.113281 757.71875 427.847656 780.910156 427.847656 C 803.328125 427.847656 822.890625 411.890625 822.890625 387.117188 C 822.890625 360.007812 802.417969 345.21875 780.78125 345.21875 Z M 781.039062 370.644531 C 790.371094 370.644531 796.71875 378.425781 796.71875 386.597656 C 796.71875 393.601562 790.757812 402.292969 781.039062 402.292969 C 772.101562 402.292969 765.492188 395.160156 765.492188 386.46875 C 765.492188 378.296875 771.0625 370.644531 781.039062 370.644531 Z M 844.917969 390.230469 C 855.15625 390.230469 863.449219 398.53125 863.449219 408.78125 C 863.449219 419.027344 855.15625 427.328125 844.917969 427.328125 C 834.683594 427.328125 826.390625 419.027344 826.390625 408.78125 C 826.390625 398.53125 834.683594 390.230469 844.917969 390.230469 Z M 869.539062 383.484375 L 836.238281 383.484375 L 865.78125 312.273438 L 898.949219 312.273438 Z M 869.539062 383.484375 " fill-opacity="1" fill-rule="nonzero"/></g></svg>