<svg xmlns="http://www.w3.org/2000/svg" xmlns:xlink="http://www.w3.org/1999/xlink" width="128" zoomAndPan="magnify" viewBox="0 0 96 57.749997" height="77" preserveAspectRatio="xMidYMid meet" version="1.0"><defs><clipPath id="74a592564a"><path d="M 1 34 L 95 34 L 95 56.007812 L 1 56.007812 Z M 1 34 " clip-rule="nonzero"/></clipPath></defs><path fill="#ffffff" d="M 27.453125 20.335938 C 27.453125 21.488281 27.578125 22.425781 27.796875 23.109375 C 28.042969 23.796875 28.355469 24.542969 28.789062 25.351562 C 28.945312 25.601562 29.007812 25.851562 29.007812 26.070312 C 29.007812 26.378906 28.820312 26.691406 28.417969 27.003906 L 26.457031 28.3125 C 26.175781 28.5 25.894531 28.59375 25.648438 28.59375 C 25.335938 28.59375 25.023438 28.4375 24.714844 28.15625 C 24.277344 27.6875 23.902344 27.191406 23.59375 26.691406 C 23.28125 26.164062 22.96875 25.570312 22.628906 24.855469 C 20.199219 27.71875 17.148438 29.152344 13.476562 29.152344 C 10.863281 29.152344 8.777344 28.40625 7.25 26.910156 C 5.726562 25.414062 4.949219 23.421875 4.949219 20.929688 C 4.949219 18.28125 5.882812 16.132812 7.78125 14.511719 C 9.679688 12.890625 12.199219 12.082031 15.40625 12.082031 C 16.464844 12.082031 17.554688 12.175781 18.707031 12.332031 C 19.859375 12.488281 21.039062 12.734375 22.285156 13.015625 L 22.285156 10.742188 C 22.285156 8.375 21.789062 6.722656 20.820312 5.757812 C 19.828125 4.792969 18.144531 4.324219 15.75 4.324219 C 14.660156 4.324219 13.539062 4.449219 12.386719 4.730469 C 11.234375 5.011719 10.113281 5.351562 9.023438 5.789062 C 8.527344 6.007812 8.152344 6.132812 7.9375 6.195312 C 7.71875 6.257812 7.5625 6.289062 7.4375 6.289062 C 7.003906 6.289062 6.785156 5.976562 6.785156 5.320312 L 6.785156 3.792969 C 6.785156 3.296875 6.847656 2.921875 7.003906 2.703125 C 7.15625 2.488281 7.4375 2.269531 7.875 2.050781 C 8.964844 1.488281 10.269531 1.023438 11.796875 0.648438 C 13.320312 0.242188 14.9375 0.0585938 16.652344 0.0585938 C 20.355469 0.0585938 23.0625 0.898438 24.808594 2.578125 C 26.519531 4.261719 27.390625 6.816406 27.390625 10.242188 L 27.390625 20.335938 Z M 14.816406 25.070312 C 15.84375 25.070312 16.902344 24.886719 18.019531 24.511719 C 19.140625 24.136719 20.136719 23.453125 20.976562 22.519531 C 21.476562 21.925781 21.851562 21.269531 22.035156 20.523438 C 22.222656 19.777344 22.347656 18.871094 22.347656 17.8125 L 22.347656 16.503906 C 21.445312 16.289062 20.480469 16.101562 19.484375 15.976562 C 18.488281 15.851562 17.523438 15.789062 16.558594 15.789062 C 14.472656 15.789062 12.949219 16.195312 11.921875 17.035156 C 10.894531 17.875 10.394531 19.058594 10.394531 20.617188 C 10.394531 22.082031 10.769531 23.171875 11.546875 23.917969 C 12.292969 24.699219 13.382812 25.070312 14.816406 25.070312 Z M 39.8125 28.4375 C 39.25 28.4375 38.875 28.34375 38.625 28.125 C 38.378906 27.9375 38.160156 27.503906 37.972656 26.910156 L 30.660156 2.828125 C 30.472656 2.207031 30.378906 1.800781 30.378906 1.582031 C 30.378906 1.085938 30.628906 0.804688 31.125 0.804688 L 34.175781 0.804688 C 34.765625 0.804688 35.171875 0.898438 35.390625 1.117188 C 35.636719 1.304688 35.824219 1.738281 36.011719 2.332031 L 41.238281 22.953125 L 46.097656 2.332031 C 46.253906 1.707031 46.4375 1.304688 46.6875 1.117188 C 46.9375 0.929688 47.371094 0.804688 47.933594 0.804688 L 50.421875 0.804688 C 51.015625 0.804688 51.417969 0.898438 51.667969 1.117188 C 51.917969 1.304688 52.132812 1.738281 52.257812 2.332031 L 57.179688 23.203125 L 62.5625 2.332031 C 62.75 1.707031 62.96875 1.304688 63.1875 1.117188 C 63.433594 0.929688 63.839844 0.804688 64.398438 0.804688 L 67.296875 0.804688 C 67.792969 0.804688 68.070312 1.054688 68.070312 1.582031 C 68.070312 1.738281 68.042969 1.894531 68.011719 2.082031 C 67.980469 2.269531 67.917969 2.519531 67.792969 2.859375 L 60.289062 26.941406 C 60.101562 27.566406 59.886719 27.96875 59.636719 28.15625 C 59.386719 28.34375 58.984375 28.46875 58.453125 28.46875 L 55.777344 28.46875 C 55.1875 28.46875 54.78125 28.375 54.53125 28.15625 C 54.28125 27.9375 54.066406 27.535156 53.941406 26.910156 L 49.117188 6.816406 L 44.324219 26.878906 C 44.167969 27.503906 43.980469 27.90625 43.734375 28.125 C 43.484375 28.34375 43.046875 28.4375 42.488281 28.4375 Z M 79.804688 29.277344 C 78.1875 29.277344 76.570312 29.089844 75.015625 28.71875 C 73.457031 28.34375 72.242188 27.9375 71.433594 27.472656 C 70.933594 27.191406 70.59375 26.878906 70.46875 26.597656 C 70.34375 26.320312 70.28125 26.007812 70.28125 25.726562 L 70.28125 24.136719 C 70.28125 23.484375 70.53125 23.171875 70.996094 23.171875 C 71.183594 23.171875 71.371094 23.203125 71.558594 23.265625 C 71.746094 23.328125 72.027344 23.453125 72.335938 23.578125 C 73.394531 24.042969 74.546875 24.417969 75.761719 24.667969 C 77.003906 24.917969 78.21875 25.039062 79.464844 25.039062 C 81.425781 25.039062 82.949219 24.699219 84.011719 24.011719 C 85.070312 23.328125 85.625 22.332031 85.625 21.054688 C 85.625 20.179688 85.347656 19.464844 84.789062 18.871094 C 84.226562 18.28125 83.171875 17.75 81.644531 17.253906 L 77.128906 15.851562 C 74.855469 15.132812 73.179688 14.074219 72.152344 12.671875 C 71.121094 11.304688 70.59375 9.777344 70.59375 8.15625 C 70.59375 6.847656 70.871094 5.695312 71.433594 4.699219 C 71.996094 3.703125 72.742188 2.828125 73.675781 2.144531 C 74.609375 1.425781 75.667969 0.898438 76.914062 0.523438 C 78.15625 0.148438 79.464844 -0.00390625 80.835938 -0.00390625 C 81.519531 -0.00390625 82.234375 0.0273438 82.921875 0.117188 C 83.636719 0.210938 84.289062 0.335938 84.945312 0.460938 C 85.5625 0.617188 86.15625 0.773438 86.71875 0.960938 C 87.277344 1.148438 87.710938 1.332031 88.023438 1.519531 C 88.460938 1.769531 88.773438 2.019531 88.957031 2.300781 C 89.144531 2.550781 89.238281 2.890625 89.238281 3.328125 L 89.238281 4.792969 C 89.238281 5.445312 88.988281 5.789062 88.523438 5.789062 C 88.273438 5.789062 87.871094 5.664062 87.339844 5.414062 C 85.5625 4.605469 83.574219 4.199219 81.363281 4.199219 C 79.589844 4.199219 78.1875 4.480469 77.226562 5.074219 C 76.257812 5.664062 75.761719 6.566406 75.761719 7.84375 C 75.761719 8.71875 76.070312 9.464844 76.695312 10.058594 C 77.316406 10.648438 78.46875 11.242188 80.117188 11.769531 L 84.539062 13.171875 C 86.78125 13.886719 88.398438 14.886719 89.363281 16.164062 C 90.328125 17.441406 90.796875 18.902344 90.796875 20.523438 C 90.796875 21.863281 90.515625 23.078125 89.984375 24.136719 C 89.425781 25.195312 88.679688 26.132812 87.710938 26.878906 C 86.75 27.65625 85.597656 28.21875 84.257812 28.625 C 82.859375 29.058594 81.398438 29.277344 79.804688 29.277344 Z M 79.804688 29.277344 " fill-opacity="1" fill-rule="nonzero"/><g clip-path="url(#74a592564a)"><path fill="#ffffff" d="M 85.6875 44.417969 C 75.449219 51.988281 60.574219 56.007812 47.78125 56.007812 C 29.847656 56.007812 13.695312 49.371094 1.496094 38.339844 C 0.527344 37.46875 1.398438 36.289062 2.550781 36.972656 C 15.75 44.636719 32.027344 49.277344 48.867188 49.277344 C 60.226562 49.277344 72.710938 46.910156 84.195312 42.050781 C 85.910156 41.269531 87.371094 43.171875 85.6875 44.417969 Z M 89.957031 39.558594 C 88.648438 37.875 81.300781 38.75 77.96875 39.152344 C 76.976562 39.277344 76.816406 38.402344 77.722656 37.75 C 83.574219 33.640625 93.191406 34.824219 94.3125 36.195312 C 95.433594 37.59375 94.003906 47.21875 88.523438 51.832031 C 87.683594 52.550781 86.871094 52.175781 87.246094 51.242188 C 88.492188 48.15625 91.261719 41.207031 89.957031 39.558594 Z M 89.957031 39.558594 " fill-opacity="1" fill-rule="nonzero"/></g></svg>