<svg xmlns="http://www.w3.org/2000/svg" xmlns:xlink="http://www.w3.org/1999/xlink" width="128" zoomAndPan="magnify" viewBox="0 0 96 57.749997" height="77" preserveAspectRatio="xMidYMid meet" version="1.0"><defs><clipPath id="3de571595d"><path d="M 3.425781 0 L 92.289062 0 L 92.289062 57.5 L 3.425781 57.5 Z M 3.425781 0 " clip-rule="nonzero"/></clipPath></defs><g clip-path="url(#3de571595d)"><path fill="#ffffff" d="M 64.488281 0.425781 C 64.035156 0.425781 63.625 0.785156 63.625 1.289062 L 63.625 17.09375 L 60.050781 15.003906 C 59.828125 14.875 59.578125 14.808594 59.324219 14.808594 C 59.074219 14.808594 58.820312 14.875 58.597656 15.003906 L 50.015625 20.027344 C 49.566406 20.285156 49.292969 20.765625 49.292969 21.28125 L 49.292969 31.332031 C 49.292969 31.851562 49.566406 32.328125 50.015625 32.585938 L 58.597656 37.605469 C 58.820312 37.738281 59.074219 37.804688 59.324219 37.804688 C 59.578125 37.804688 59.828125 37.738281 60.050781 37.605469 L 68.636719 32.585938 C 69.082031 32.328125 69.359375 31.847656 69.359375 31.332031 L 69.359375 3.964844 C 69.359375 3.453125 69.085938 2.980469 68.648438 2.722656 L 64.914062 0.542969 C 64.773438 0.460938 64.628906 0.425781 64.488281 0.425781 Z M 36.390625 14.808594 C 36.140625 14.808594 35.890625 14.875 35.664062 15.003906 L 27.082031 20.027344 C 26.632812 20.285156 26.359375 20.765625 26.359375 21.28125 L 26.359375 31.332031 C 26.359375 31.851562 26.632812 32.328125 27.082031 32.585938 L 35.664062 37.605469 C 36.113281 37.867188 36.667969 37.867188 37.121094 37.605469 L 45.703125 32.585938 C 46.148438 32.328125 46.425781 31.847656 46.425781 31.332031 L 46.425781 21.28125 C 46.425781 20.761719 46.148438 20.285156 45.703125 20.027344 L 37.121094 15.003906 C 36.894531 14.875 36.644531 14.808594 36.390625 14.808594 Z M 82.257812 14.808594 C 82.003906 14.808594 81.753906 14.875 81.53125 15.003906 L 72.945312 20.027344 C 72.5 20.285156 72.222656 20.765625 72.222656 21.28125 L 72.222656 31.332031 C 72.222656 31.851562 72.5 32.328125 72.945312 32.585938 L 81.273438 37.632812 C 81.71875 37.90625 82.28125 37.910156 82.734375 37.644531 L 86.828125 35.257812 C 87.25 35.015625 87.253906 34.398438 86.828125 34.148438 L 77.957031 28.90625 L 77.957031 23.746094 L 82.257812 21.234375 L 86.558594 23.746094 L 86.558594 27.339844 C 86.558594 27.820312 86.960938 27.894531 87.230469 27.734375 C 88.3125 27.09375 91.578125 25.195312 91.578125 25.195312 C 92.019531 24.9375 92.289062 24.464844 92.289062 23.953125 L 92.289062 21.28125 C 92.289062 20.761719 92.015625 20.285156 91.570312 20.027344 L 82.984375 15.003906 C 82.757812 14.875 82.511719 14.808594 82.257812 14.808594 Z M 13.457031 14.816406 C 13.207031 14.816406 12.953125 14.878906 12.730469 15.011719 L 4.148438 20.027344 C 3.699219 20.289062 3.425781 20.765625 3.425781 21.285156 L 3.425781 34.117188 C 3.425781 34.746094 4.101562 35.132812 4.640625 34.820312 L 8.449219 32.597656 C 8.886719 32.339844 9.160156 31.867188 9.160156 31.355469 L 9.160156 23.757812 L 13.457031 21.238281 L 17.757812 23.757812 L 17.757812 31.355469 C 17.757812 31.867188 18.03125 32.339844 18.46875 32.597656 L 22.277344 34.820312 C 22.816406 35.136719 23.492188 34.746094 23.492188 34.117188 L 23.492188 21.285156 C 23.492188 20.765625 23.21875 20.289062 22.769531 20.027344 L 14.1875 15.011719 C 13.964844 14.878906 13.710938 14.816406 13.457031 14.816406 Z M 59.324219 21.234375 L 63.625 23.75 L 63.625 28.863281 L 59.324219 31.378906 L 55.023438 28.863281 L 55.023438 23.75 Z M 82.257812 23.441406 L 79.800781 24.878906 L 79.800781 27.75 L 82.257812 29.183594 L 84.714844 27.75 L 84.714844 24.878906 Z M 47.589844 34.925781 C 47.292969 34.925781 46.996094 35 46.738281 35.148438 L 38.675781 39.820312 C 38.144531 40.113281 37.824219 40.691406 37.824219 41.292969 L 37.824219 50.625 C 37.824219 51.226562 38.160156 51.792969 38.675781 52.097656 L 40.796875 53.308594 C 41.816406 53.8125 42.191406 53.816406 42.652344 53.816406 C 44.171875 53.816406 45.035156 52.90625 45.035156 51.292969 L 45.035156 42.070312 C 45.035156 41.929688 44.925781 41.832031 44.800781 41.832031 L 43.78125 41.832031 C 43.640625 41.832031 43.542969 41.945312 43.542969 42.070312 L 43.542969 51.292969 C 43.542969 51.992188 42.804688 52.710938 41.605469 52.109375 L 39.398438 50.832031 C 39.328125 50.789062 39.273438 50.703125 39.273438 50.621094 L 39.273438 41.285156 C 39.273438 41.203125 39.316406 41.105469 39.398438 41.0625 L 47.460938 36.398438 C 47.546875 36.355469 47.644531 36.355469 47.710938 36.398438 L 55.78125 41.0625 C 55.863281 41.105469 55.902344 41.1875 55.902344 41.285156 L 55.902344 50.621094 C 55.902344 50.71875 55.847656 50.800781 55.78125 50.84375 L 47.710938 55.523438 C 47.640625 55.566406 47.53125 55.566406 47.460938 55.523438 L 45.398438 54.292969 C 45.347656 54.265625 45.257812 54.246094 45.203125 54.277344 C 44.632812 54.613281 44.519531 54.65625 43.988281 54.839844 C 43.847656 54.882812 43.65625 54.96875 44.0625 55.191406 L 46.738281 56.785156 C 47.003906 56.929688 47.296875 57.011719 47.589844 57.011719 C 47.894531 57.011719 48.195312 56.929688 48.429688 56.777344 L 56.492188 52.097656 C 57.023438 51.804688 57.34375 51.226562 57.34375 50.625 L 57.34375 41.292969 C 57.34375 40.691406 57.007812 40.128906 56.492188 39.820312 L 48.429688 35.148438 C 48.179688 35 47.882812 34.925781 47.589844 34.925781 Z M 60.164062 39.234375 C 59.339844 39.234375 58.621094 39.902344 58.621094 40.785156 C 58.621094 41.640625 59.3125 42.339844 60.164062 42.339844 C 61.015625 42.339844 61.710938 41.640625 61.710938 40.785156 C 61.710938 39.902344 61 39.222656 60.164062 39.234375 Z M 60.148438 39.484375 C 60.875 39.484375 61.464844 40.058594 61.464844 40.785156 C 61.464844 41.5 60.871094 42.089844 60.148438 42.105469 C 59.433594 42.105469 58.855469 41.511719 58.855469 40.785156 C 58.855469 40.058594 59.4375 39.484375 60.148438 39.484375 Z M 59.582031 39.902344 L 59.582031 41.652344 L 59.914062 41.652344 L 59.914062 40.953125 L 60.21875 40.953125 C 60.347656 40.953125 60.375 41.007812 60.40625 41.105469 C 60.40625 41.121094 60.457031 41.574219 60.472656 41.65625 L 60.832031 41.65625 C 60.789062 41.574219 60.761719 41.332031 60.746094 41.191406 C 60.707031 40.964844 60.695312 40.8125 60.457031 40.796875 C 60.582031 40.753906 60.792969 40.6875 60.792969 40.363281 C 60.792969 39.902344 60.390625 39.902344 60.179688 39.902344 Z M 59.914062 40.183594 L 60.191406 40.183594 C 60.277344 40.183594 60.445312 40.183594 60.445312 40.421875 C 60.445312 40.519531 60.402344 40.675781 60.175781 40.671875 L 59.914062 40.671875 Z M 49.75 41.609375 C 47.449219 41.609375 46.082031 42.59375 46.082031 44.21875 C 46.082031 45.996094 47.449219 46.46875 49.65625 46.695312 C 52.292969 46.957031 52.5 47.339844 52.5 47.855469 C 52.5 48.765625 51.773438 49.144531 50.070312 49.144531 C 47.933594 49.144531 47.464844 48.613281 47.308594 47.546875 C 47.296875 47.4375 47.195312 47.351562 47.070312 47.351562 L 46.023438 47.351562 C 45.894531 47.351562 45.785156 47.453125 45.785156 47.59375 C 45.785156 48.949219 46.523438 50.574219 50.054688 50.574219 C 52.640625 50.574219 54.105469 49.566406 54.105469 47.800781 C 54.105469 46.050781 52.933594 45.585938 50.449219 45.25 C 47.9375 44.914062 47.691406 44.746094 47.691406 44.15625 C 47.691406 43.667969 47.894531 43.027344 49.75 43.027344 C 51.410156 43.027344 52.027344 43.390625 52.28125 44.507812 C 52.308594 44.621094 52.386719 44.6875 52.5 44.6875 L 53.546875 44.6875 C 53.617188 44.6875 53.675781 44.660156 53.714844 44.621094 C 53.757812 44.566406 53.785156 44.511719 53.769531 44.441406 C 53.605469 42.507812 52.332031 41.609375 49.75 41.609375 Z M 49.75 41.609375 " fill-opacity="1" fill-rule="nonzero"/></g></svg>